<?xml version="1.0" standalone="no"?>
<!DOCTYPE svg PUBLIC "-//W3C//DTD SVG 20010904//EN"
 "http://www.w3.org/TR/2001/REC-SVG-20010904/DTD/svg10.dtd">
<svg version="1.0" xmlns="http://www.w3.org/2000/svg"
 width="512.000000pt" height="512.000000pt" viewBox="0 0 512.000000 512.000000"
 preserveAspectRatio="xMidYMid meet">
<metadata>
Created by potrace 1.14, written by Peter Selinger 2001-2017
</metadata>
<g transform="translate(0.000000,512.000000) scale(0.100000,-0.100000)"
fill="#000000" stroke="none">
<path d="M2487 4850 c-173 -44 -281 -227 -232 -395 29 -102 103 -185 191 -217
l34 -12 0 -231 c0 -229 0 -232 23 -253 14 -13 36 -22 54 -22 89 0 93 14 93
340 l0 272 -29 29 c-20 20 -39 29 -61 29 -81 0 -144 66 -144 152 0 59 24 94
85 126 48 25 92 23 141 -6 34 -20 68 -81 68 -122 0 -37 47 -90 80 -90 29 0 76
26 84 45 23 61 -11 185 -69 253 -70 81 -215 128 -318 102z"/>
<path d="M680 4561 c-197 -65 -288 -268 -201 -446 35 -72 90 -124 157 -152
l44 -18 0 -328 c0 -265 3 -333 14 -355 17 -32 201 -215 233 -231 36 -18 63
-13 94 18 53 53 44 79 -71 196 l-100 101 0 355 0 356 -25 23 c-15 14 -44 26
-77 31 -76 12 -120 58 -126 131 -3 44 0 59 20 88 27 40 79 70 123 70 39 0 94
-28 118 -61 10 -15 23 -49 28 -75 16 -87 87 -121 146 -70 25 22 28 30 26 81
-4 108 -71 208 -176 262 -40 20 -70 27 -127 29 -41 2 -86 0 -100 -5z"/>
<path d="M4252 4552 c-94 -34 -178 -123 -203 -215 -17 -64 -6 -163 24 -223 30
-60 113 -138 162 -154 l35 -12 0 -305 0 -306 -100 -96 c-79 -76 -100 -102
-100 -123 0 -65 50 -108 107 -93 17 4 76 54 145 123 l118 117 1 390 c0 215 -3
398 -6 408 -10 23 -56 47 -93 47 -63 0 -132 76 -132 145 0 70 75 144 145 145
39 0 94 -28 118 -61 10 -15 23 -49 28 -75 16 -88 91 -123 146 -68 24 24 25 31
21 92 -6 79 -30 132 -87 189 -85 84 -218 114 -329 75z"/>
<path d="M1580 4441 c-92 -30 -169 -97 -209 -181 -36 -77 -35 -182 1 -260 31
-67 92 -129 158 -160 l50 -23 0 -121 c1 -126 5 -142 47 -164 35 -19 63 -14 94
17 l29 29 0 175 c0 206 -3 214 -89 228 -63 10 -95 29 -122 72 -29 46 -23 136
12 173 28 31 77 54 116 54 65 0 143 -72 143 -132 0 -69 60 -119 117 -97 40 15
52 38 53 99 0 108 -80 225 -189 273 -50 22 -168 32 -211 18z"/>
<path d="M3364 4436 c-100 -32 -190 -128 -215 -229 -16 -64 -6 -156 22 -214
29 -61 98 -129 155 -154 l44 -20 0 -107 c0 -82 4 -115 18 -142 21 -43 66 -59
108 -39 47 23 54 49 54 222 0 208 -4 216 -108 232 -56 9 -108 54 -122 106 -30
110 77 215 183 180 58 -20 107 -86 107 -146 0 -13 11 -36 24 -51 33 -40 89
-39 124 1 22 26 24 36 19 86 -14 161 -137 278 -300 285 -43 2 -89 -2 -113 -10z"/>
<path d="M2330 3586 c-605 -80 -1128 -411 -1440 -915 -61 -98 -63 -122 -13
-205 249 -415 674 -736 1151 -870 610 -172 1282 -35 1772 361 92 75 241 225
315 318 75 94 164 235 170 271 17 92 -313 493 -550 667 -250 183 -553 311
-865 362 -134 22 -410 28 -540 11z m390 -167 c373 -34 715 -178 1008 -423 127
-107 225 -218 332 -374 l43 -63 -57 -84 c-119 -175 -286 -341 -463 -462 -94
-64 -223 -139 -223 -129 0 3 16 26 35 52 137 179 205 385 205 621 0 177 -42
365 -91 406 -31 25 -85 22 -114 -8 -31 -30 -31 -44 1 -152 32 -109 42 -268 24
-380 -27 -169 -104 -325 -224 -450 -243 -257 -550 -332 -989 -242 -376 76
-743 286 -988 565 -83 94 -189 241 -189 261 0 8 28 56 62 106 83 122 312 352
433 433 80 54 230 144 241 144 2 0 -18 -30 -45 -67 -195 -270 -253 -622 -151
-928 12 -37 31 -75 43 -86 30 -28 88 -25 116 5 28 30 29 65 2 145 -46 139 -49
292 -11 456 73 313 337 572 652 639 127 27 189 30 348 15z"/>
<path d="M2500 3019 c-231 -30 -400 -222 -401 -455 -1 -128 34 -224 114 -312
101 -109 222 -157 380 -150 85 3 102 8 172 42 128 63 215 168 250 301 54 208
-49 430 -244 528 -63 32 -91 39 -191 51 -14 1 -50 -1 -80 -5z m163 -185 c109
-37 191 -154 191 -273 1 -253 -294 -382 -492 -216 -17 14 -45 53 -61 87 -79
158 -3 343 166 404 52 18 140 17 196 -2z"/>
<path d="M803 1977 l-123 -123 0 -391 0 -392 23 -26 c15 -18 37 -28 73 -34 87
-13 134 -63 134 -142 0 -122 -137 -190 -233 -116 -36 27 -51 58 -62 119 -11
69 -85 100 -137 58 -32 -24 -38 -55 -26 -123 17 -96 89 -186 183 -229 70 -32
189 -32 261 0 64 29 136 102 165 167 35 79 31 176 -10 259 -35 73 -90 125
-157 153 l-44 18 0 299 0 300 94 96 c52 53 98 108 101 123 9 36 -10 82 -41 96
-57 26 -72 17 -201 -112z"/>
<path d="M4096 2074 c-18 -19 -26 -37 -26 -63 0 -33 9 -45 100 -131 l100 -95
2 -362 c3 -416 -1 -396 97 -412 74 -12 122 -59 128 -128 8 -83 -40 -145 -123
-158 -79 -13 -164 62 -164 143 0 74 -93 110 -147 56 -23 -23 -25 -31 -21 -88
9 -108 76 -204 176 -253 49 -24 69 -28 142 -28 73 0 92 4 136 27 67 35 138
115 160 180 25 77 16 188 -21 257 -33 60 -87 110 -151 140 l-44 21 0 338 0
339 -124 121 c-110 108 -128 122 -159 122 -24 0 -42 -8 -61 -26z"/>
<path d="M1625 1588 c-43 -23 -45 -35 -45 -219 0 -98 3 -185 6 -194 8 -21 56
-45 91 -45 63 0 133 -73 133 -138 0 -110 -119 -180 -218 -128 -39 20 -72 70
-72 109 0 36 -25 83 -51 98 -28 15 -82 3 -105 -22 -25 -28 -23 -121 5 -183 28
-64 102 -140 164 -167 71 -32 191 -33 258 -2 67 30 124 86 159 155 26 52 30
72 30 138 0 66 -4 86 -31 138 -34 69 -90 122 -155 149 l-44 18 0 123 c0 123 0
124 -29 153 -31 30 -62 36 -96 17z"/>
<path d="M3417 1589 c-37 -21 -47 -71 -47 -222 0 -80 5 -158 11 -176 12 -35
53 -61 96 -61 63 0 133 -73 133 -139 0 -83 -88 -160 -168 -147 -68 11 -117 63
-131 140 -11 61 -39 90 -87 90 -28 0 -42 -7 -62 -29 -21 -25 -24 -36 -19 -85
10 -109 81 -210 182 -260 72 -35 199 -36 270 -1 63 32 131 99 158 159 32 70
31 199 -3 267 -30 63 -97 127 -154 151 l-45 19 -3 128 c-3 127 -3 129 -31 153
-30 25 -70 30 -100 13z"/>
<path d="M2540 1403 c-8 -3 -25 -15 -37 -26 -23 -20 -23 -22 -23 -312 l0 -292
23 -21 c13 -13 36 -22 53 -22 16 0 50 -10 74 -22 101 -53 106 -178 9 -250 -34
-26 -108 -26 -152 -1 -36 21 -77 93 -77 136 0 38 -40 77 -80 77 -22 0 -41 -10
-62 -31 -29 -29 -30 -33 -24 -87 9 -76 46 -151 102 -202 67 -62 124 -84 214
-84 66 -1 85 4 143 32 122 60 184 169 175 306 -8 116 -71 212 -174 262 l-54
26 0 219 c0 120 -4 229 -10 244 -6 15 -24 32 -45 40 -19 8 -36 15 -37 14 -2 0
-10 -3 -18 -6z"/>
</g>
</svg>
