<?xml version="1.0" standalone="no"?>
<!DOCTYPE svg PUBLIC "-//W3C//DTD SVG 20010904//EN"
 "http://www.w3.org/TR/2001/REC-SVG-20010904/DTD/svg10.dtd">
<svg version="1.0" xmlns="http://www.w3.org/2000/svg"
 width="430.000000pt" height="430.000000pt" viewBox="0 0 430.000000 430.000000"
 preserveAspectRatio="xMidYMid meet">
<metadata>
Created by potrace 1.14, written by Peter Selinger 2001-2017
</metadata>
<g transform="translate(0.000000,430.000000) scale(0.100000,-0.100000)"
fill="#000000" stroke="none">
<path d="M374 3755 c-121 -38 -202 -120 -239 -241 -22 -72 -22 -2654 0 -2726
37 -125 117 -205 241 -243 43 -13 270 -15 1789 -12 l1740 2 59 29 c32 16 73
42 92 58 45 39 89 120 104 188 8 41 10 400 8 1370 -3 1240 -4 1318 -21 1363
-27 71 -96 151 -160 183 -86 45 -39 44 -1852 43 -1380 -1 -1728 -4 -1761 -14z"/>
</g>
</svg>
